<?xml version="1.0" standalone="no"?>
<!DOCTYPE svg PUBLIC "-//W3C//DTD SVG 20010904//EN"
 "http://www.w3.org/TR/2001/REC-SVG-20010904/DTD/svg10.dtd">
<svg version="1.0" xmlns="http://www.w3.org/2000/svg"
 width="1920.000000pt" height="1920.000000pt" viewBox="0 0 1920.000000 1920.000000"
 preserveAspectRatio="xMidYMid meet">

<g transform="translate(0.000000,1920.000000) scale(0.100000,-0.100000)"
fill="#000000" stroke="none">
<path d="M9409 16505 c-136 -14 -299 -45 -299 -57 0 -5 -4 -7 -9 -3 -16 9
-152 -25 -145 -37 4 -6 2 -8 -3 -5 -10 6 -133 -30 -178 -53 -11 -5 -32 -12
-46 -14 -23 -4 -85 -31 -98 -42 -3 -2 4 -10 14 -18 14 -10 15 -15 5 -21 -9 -6
-11 -4 -5 5 5 8 3 11 -6 8 -8 -3 -13 -10 -12 -15 1 -5 -7 -9 -18 -9 -19 0 -18
1 3 19 l23 19 -27 -6 c-15 -4 -44 -17 -63 -31 -20 -13 -45 -27 -56 -30 -11 -4
-16 -11 -13 -17 4 -7 2 -8 -5 -4 -13 8 -84 -32 -77 -43 3 -4 0 -8 -7 -8 -18 0
-68 -34 -62 -42 2 -4 -1 -8 -8 -8 -16 0 -88 -46 -106 -67 -12 -14 -12 -16 5
-10 15 4 16 4 5 -4 -8 -6 -20 -8 -28 -5 -7 3 -13 0 -13 -6 0 -6 -6 -11 -14
-11 -18 0 -98 -88 -91 -100 3 -6 -1 -7 -10 -4 -19 7 -57 -24 -48 -39 3 -5 1
-7 -4 -4 -10 7 -73 -56 -73 -71 1 -4 12 7 25 23 14 17 25 25 25 19 0 -14 -45
-56 -52 -48 -3 3 -27 -21 -52 -53 -26 -32 -55 -67 -65 -78 -38 -42 -90 -122
-84 -128 3 -4 1 -7 -4 -7 -14 0 -75 -98 -68 -109 2 -5 -3 -15 -13 -22 -16 -13
-16 -13 -2 6 14 18 14 19 -2 7 -9 -7 -15 -20 -14 -30 2 -9 -3 -23 -11 -31 -8
-7 -12 -20 -9 -28 3 -8 2 -12 -2 -9 -11 7 -54 -82 -46 -95 3 -5 0 -8 -6 -7
-16 4 -50 -81 -43 -108 2 -12 0 -25 -6 -28 -7 -5 -9 0 -5 11 5 17 5 17 -6 0
-6 -9 -9 -21 -5 -26 3 -5 -1 -12 -7 -14 -10 -4 -9 -8 2 -16 13 -9 12 -11 -5
-11 -15 0 -17 -3 -7 -9 11 -6 10 -10 -3 -15 -10 -4 -15 -12 -11 -22 3 -8 2
-12 -4 -9 -6 3 -10 -2 -11 -12 0 -10 -3 -27 -5 -38 -3 -11 -7 -29 -9 -40 -2
-11 -4 -22 -5 -25 -1 -3 -2 -9 -1 -14 1 -4 -4 -14 -10 -22 -9 -11 -8 -14 2
-14 11 0 11 -2 1 -8 -7 -5 -15 -18 -17 -30 -3 -12 -7 -32 -10 -44 -3 -13 -8
-48 -10 -78 -10 -106 -18 -123 -60 -147 -22 -12 -40 -27 -40 -32 0 -5 -4 -13
-9 -18 -6 -5 -6 -2 -1 6 6 11 4 13 -9 8 -10 -4 -22 -7 -27 -7 -6 0 -7 -4 -4
-10 3 -5 0 -7 -8 -4 -15 5 -92 -31 -103 -48 -4 -6 0 -14 7 -19 9 -6 10 -9 2
-9 -6 0 -14 4 -18 10 -3 5 -12 7 -20 4 -8 -4 -12 -10 -9 -15 3 -5 -2 -6 -10
-3 -9 3 -18 0 -21 -8 -3 -8 -11 -15 -18 -15 -20 0 -177 -95 -172 -104 3 -4 0
-11 -6 -15 -8 -4 -9 -3 -5 4 12 20 -3 13 -75 -33 -39 -25 -67 -50 -64 -55 3
-6 -1 -7 -10 -4 -17 7 -68 -33 -60 -46 3 -4 -3 -7 -13 -6 -9 0 -16 -5 -14 -12
1 -8 -2 -11 -8 -7 -5 3 -10 2 -10 -4 0 -6 -6 -8 -14 -5 -7 3 -16 -2 -19 -10
-4 -9 -13 -16 -22 -16 -8 0 -15 -3 -15 -7 0 -5 -13 -17 -29 -28 -16 -10 -27
-23 -24 -29 3 -5 2 -6 -4 -3 -14 9 -95 -52 -86 -65 3 -7 1 -8 -5 -4 -10 6
-118 -77 -172 -132 -13 -13 -13 -14 2 -9 10 3 20 2 23 -3 3 -4 -7 -7 -21 -5
-18 2 -39 -9 -72 -38 -26 -22 -46 -45 -44 -50 1 -4 -2 -6 -7 -3 -12 8 -33 -18
-23 -29 4 -5 2 -5 -4 -2 -14 8 -57 -36 -47 -48 5 -4 3 -5 -3 -2 -16 9 -238
-218 -229 -233 5 -8 4 -11 -2 -7 -13 8 -156 -147 -145 -157 4 -4 2 -6 -4 -4
-6 2 -38 -31 -70 -72 -32 -41 -62 -78 -67 -81 -5 -4 -6 -13 -2 -20 5 -8 5 -11
0 -7 -10 10 -75 -73 -68 -87 4 -5 2 -7 -2 -2 -10 9 -45 -21 -45 -39 0 -7 -4
-14 -8 -16 -17 -7 -143 -208 -137 -218 3 -6 1 -9 -6 -8 -10 3 -151 -219 -179
-282 -6 -14 -17 -32 -25 -40 -7 -8 -15 -22 -17 -30 -2 -8 -5 -17 -8 -20 -7 -7
-160 -324 -160 -332 0 -4 -16 -41 -35 -83 -20 -42 -33 -80 -30 -86 4 -5 2 -9
-4 -9 -5 0 -13 -10 -16 -22 -4 -13 -36 -106 -71 -208 -88 -255 -176 -580 -176
-649 0 -20 -6 -50 -13 -68 -7 -17 -11 -34 -8 -36 3 -4 -16 -126 -21 -134 -4
-5 -993 -183 -1028 -185 -21 -1 -38 -6 -38 -11 0 -4 -4 -5 -10 -2 -5 3 -74 -6
-152 -20 -79 -14 -217 -39 -308 -55 -91 -17 -171 -32 -177 -35 -10 -3 -13
-334 -13 -1608 l0 -1603 73 12 c39 7 95 15 122 18 28 4 322 56 655 117 333 60
623 112 645 114 65 7 105 14 419 71 238 44 301 52 308 42 5 -7 25 -44 45 -83
70 -137 266 -464 300 -500 11 -11 46 -58 78 -105 269 -386 672 -799 1070
-1097 77 -57 147 -110 155 -116 104 -84 371 -246 610 -369 142 -74 428 -206
457 -212 10 -1 32 -8 48 -15 175 -72 605 -203 708 -217 16 -2 33 -6 38 -9 5
-4 28 -8 51 -11 24 -3 86 -14 138 -24 225 -44 516 -75 808 -86 100 -4 182 -9
182 -12 0 -16 -113 -194 -185 -291 -5 -8 -48 -54 -95 -103 -117 -122 -243
-215 -414 -303 -143 -74 -144 -75 -100 -75 124 0 492 67 744 135 69 19 141 37
160 40 54 9 325 100 525 177 99 38 187 71 195 73 23 5 124 46 135 55 5 4 60
29 120 55 61 26 149 67 198 91 48 24 87 42 87 39 0 -2 28 11 63 29 34 19 116
63 182 98 66 36 156 84 200 107 191 102 702 446 840 566 31 28 70 61 86 75 15
14 47 41 69 60 23 19 58 52 78 74 20 21 91 79 157 129 404 305 790 689 1050
1042 154 209 179 245 225 316 66 102 270 460 270 474 0 7 22 54 49 106 27 52
66 135 86 184 21 50 41 95 45 100 4 6 18 39 30 75 12 36 25 72 28 80 3 8 6 20
7 25 2 6 25 78 53 160 79 234 180 624 167 645 -3 5 -1 11 5 15 6 4 8 10 6 14
-8 13 44 325 55 332 6 3 81 18 167 33 86 15 168 30 182 32 14 3 45 7 70 9 25
3 268 46 540 96 272 49 540 98 595 108 55 10 108 17 118 15 16 -3 17 79 17
1607 0 1314 -2 1609 -13 1609 -7 0 -148 -25 -313 -55 -293 -55 -348 -64 -409
-70 -16 -2 -31 -4 -32 -5 -2 -2 -11 -3 -20 -4 -82 -10 -134 -20 -139 -27 -3
-5 -9 -7 -13 -4 -8 4 -81 -8 -829 -145 -184 -33 -359 -63 -390 -66 -31 -3 -77
-9 -102 -15 -24 -6 -46 -6 -48 -2 -18 44 -172 287 -181 285 -7 -1 -9 2 -6 8 6
9 -96 174 -142 230 -7 8 -34 43 -61 77 -27 34 -53 59 -57 55 -5 -4 -5 -1 0 7
4 7 3 16 -2 20 -5 3 -35 40 -67 81 -32 41 -64 74 -70 72 -6 -2 -8 0 -4 4 11
10 -132 165 -145 157 -6 -4 -7 -1 -2 6 9 16 -103 133 -118 124 -6 -3 -7 -2 -4
4 8 13 -97 116 -108 106 -4 -5 -5 -3 -2 3 8 14 -36 57 -48 47 -4 -5 -5 -3 -2
3 8 14 -17 37 -27 26 -4 -4 -6 -2 -4 4 5 15 -270 246 -284 238 -6 -4 -8 -3 -5
4 9 13 -72 74 -86 65 -6 -3 -7 -2 -4 3 3 6 -8 19 -24 29 -16 11 -29 23 -29 28
0 4 -7 7 -15 7 -9 0 -18 7 -22 16 -3 8 -11 13 -18 11 -6 -3 -17 4 -24 15 -8
13 -18 17 -29 13 -9 -3 -13 -3 -9 1 8 8 -31 54 -45 54 -5 0 -24 11 -41 24 -51
39 -300 187 -305 181 -3 -2 -11 3 -18 13 -12 15 -15 15 -25 2 -9 -13 -10 -13
-6 2 6 18 -19 33 -28 18 -4 -6 -12 -10 -18 -10 -8 0 -7 3 2 9 7 5 11 13 7 19
-10 16 -80 49 -99 46 -9 -1 -15 2 -11 7 3 5 1 9 -5 9 -5 0 -17 3 -27 7 -13 5
-15 3 -9 -7 5 -9 4 -11 -4 -6 -6 4 -9 11 -6 15 2 5 -12 17 -33 27 -40 21 -53
34 -46 46 7 11 -23 178 -56 308 -57 224 -198 557 -278 655 -4 6 -28 39 -51 74
-135 199 -361 426 -562 564 -173 120 -389 235 -489 262 -16 4 -36 11 -135 45
-102 35 -332 80 -484 95 -166 17 -210 17 -372 0z m460 -340 c623 -91 1162
-479 1444 -1041 156 -311 221 -637 196 -994 -15 -234 -76 -469 -173 -674 -20
-42 -34 -82 -30 -88 4 -7 3 -8 -4 -4 -15 9 -44 -48 -36 -71 5 -15 4 -15 -5 -3
-8 12 -11 11 -17 -5 -4 -11 -16 -32 -26 -47 -11 -16 -16 -33 -13 -38 4 -6 1
-9 -6 -8 -6 2 -14 -3 -17 -11 -3 -9 0 -11 8 -6 9 5 11 4 6 -4 -4 -6 -11 -9
-16 -6 -5 3 -17 -7 -27 -22 -10 -15 -27 -39 -39 -53 -12 -14 -53 -61 -91 -105
-38 -44 -68 -85 -66 -91 2 -6 -4 -17 -14 -25 -16 -13 -17 -12 -4 4 30 39 2 21
-76 -46 -69 -60 -80 -74 -70 -87 11 -13 10 -13 -6 -1 -11 9 -21 11 -25 5 -4
-5 -20 -17 -35 -27 -15 -10 -25 -23 -21 -29 4 -6 3 -8 -3 -5 -6 4 -58 -22
-115 -57 -109 -65 -272 -140 -370 -171 -31 -10 -55 -22 -52 -27 3 -4 -2 -5
-10 -2 -8 3 -39 -1 -68 -9 -183 -53 -450 -77 -644 -58 -861 82 -1541 689
-1720 1534 -35 164 -44 445 -20 622 56 417 224 770 515 1077 93 98 245 222
371 302 203 129 482 232 735 270 126 20 412 20 544 1z m-1475 -61 c3 -8 2 -12
-4 -9 -6 3 -10 10 -10 16 0 14 7 11 14 -7z m-14 -20 c0 -2 -9 0 -20 6 -11 6
-20 13 -20 16 0 2 9 0 20 -6 11 -6 20 -13 20 -16z m-84 -34 c0 -12 -4 -16 -9
-11 -5 5 -6 14 -3 20 10 15 12 14 12 -9z m-31 -20 c3 -6 -1 -7 -9 -4 -18 7
-21 14 -7 14 6 0 13 -4 16 -10z m-95 -67 c-8 -3 -22 -11 -30 -17 -13 -10 -13
-9 -1 7 7 9 21 17 30 16 13 0 14 -1 1 -6z m300 3 c0 -3 -4 -8 -10 -11 -5 -3
-10 -1 -10 4 0 6 5 11 10 11 6 0 10 -2 10 -4z m-30 -20 c0 -2 -8 -10 -17 -17
-16 -13 -17 -12 -4 4 13 16 21 21 21 13z m-369 -83 c12 -16 12 -17 -2 -6 -9 7
-20 9 -24 5 -5 -4 -5 -1 -1 6 9 16 11 15 27 -5z m-155 -152 c0 -11 -5 -17 -13
-14 -10 4 -11 9 -2 19 15 18 15 18 15 -5z m-33 -36 c-3 -9 -8 -14 -10 -11 -3
3 -2 9 2 15 9 16 15 13 8 -4z m24 -17 c-3 -8 -6 -5 -6 6 -1 11 2 17 5 13 3 -3
4 -12 1 -19z m-97 -82 c0 -3 -4 -8 -10 -11 -5 -3 -10 -1 -10 4 0 6 5 11 10 11
6 0 10 -2 10 -4z m230 0 c0 -2 -8 -10 -17 -17 -16 -13 -17 -12 -4 4 13 16 21
21 21 13z m-313 -101 c-7 -16 9 -30 16 -15 3 6 4 5 3 -1 -1 -7 -12 -13 -23
-14 -18 -1 -20 1 -10 22 11 25 23 32 14 8z m-47 -169 c0 -2 -7 -7 -16 -10 -8
-3 -12 -2 -9 4 6 10 25 14 25 6z m-97 -153 c-4 -10 -9 -11 -19 -2 -18 15 -18
15 5 15 11 0 17 -5 14 -13z m-28 -13 c3 -5 1 -10 -4 -10 -6 0 -11 5 -11 10 0
6 2 10 4 10 3 0 8 -4 11 -10z m4302 -732 c-3 -8 -6 -5 -6 6 -1 11 2 17 5 13 3
-3 4 -12 1 -19z m-4657 -50 c0 -6 -3 -8 -7 -5 -3 4 -13 1 -22 -6 -14 -11 -14
-10 -2 6 15 20 31 22 31 5z m4146 -916 c-17 -16 -18 -16 -5 5 7 12 15 20 18
17 3 -2 -3 -12 -13 -22z m7 -177 c-3 -9 -8 -14 -10 -11 -3 3 -2 9 2 15 9 16
15 13 8 -4z m-170 -128 c3 -7 -3 -13 -13 -13 -10 0 -16 6 -13 13 3 7 9 13 13
13 4 0 10 -6 13 -13z m58 -50 c-10 -9 -11 -8 -5 6 3 10 9 15 12 12 3 -3 0 -11
-7 -18z m-131 -122 c-7 -9 -15 -13 -19 -10 -3 3 1 10 9 15 21 14 24 12 10 -5z
m13 -20 c-3 -9 -8 -14 -10 -11 -3 3 -2 9 2 15 9 16 15 13 8 -4z m-103 1 c0 -3
-4 -8 -10 -11 -5 -3 -10 -1 -10 4 0 6 5 11 10 11 6 0 10 -2 10 -4z m-120 -220
c0 -2 -8 -10 -17 -17 -16 -13 -17 -12 -4 4 13 16 21 21 21 13z m-300 -120 c0
-2 -7 -7 -16 -10 -8 -3 -12 -2 -9 4 6 10 25 14 25 6z m-10 -100 c0 -2 -7 -7
-16 -10 -8 -3 -12 -2 -9 4 6 10 25 14 25 6z m5530 -585 c0 -9 -11 -32 -235
-506 -73 -154 -174 -367 -224 -473 l-91 -193 0 -345 c0 -267 -3 -346 -12 -349
-14 -5 -466 -85 -480 -85 -4 0 -8 155 -8 345 l0 345 -99 172 c-54 95 -158 277
-231 403 -214 372 -233 405 -229 410 2 2 112 22 243 44 132 23 249 44 261 47
16 4 25 -2 37 -28 10 -18 44 -82 78 -143 33 -60 97 -179 141 -264 56 -105 84
-149 90 -139 4 7 73 162 154 343 80 182 150 334 156 340 5 5 102 26 217 46
237 43 232 42 232 30z m-1898 -457 c22 -60 64 -174 93 -254 52 -145 166 -454
317 -860 44 -118 98 -263 119 -322 38 -108 38 -108 16 -113 -102 -23 -482 -84
-487 -78 -4 4 -31 76 -60 158 -29 83 -56 153 -59 157 -5 5 -535 -84 -567 -96
-6 -2 -35 -86 -64 -185 -37 -123 -59 -182 -69 -185 -20 -6 -418 -76 -430 -76
-5 0 1 33 14 73 13 39 130 394 259 787 129 393 257 782 283 864 36 111 53 151
68 157 34 15 510 96 518 89 5 -4 27 -56 49 -116z m-1152 -86 c0 -7 -25 -119
-55 -248 -31 -129 -83 -354 -116 -500 -121 -534 -250 -1084 -254 -1088 -7 -8
-491 -88 -496 -83 -6 5 -174 658 -238 923 -24 98 -41 136 -41 90 0 -9 -52
-231 -115 -492 -63 -261 -123 -508 -133 -549 l-18 -75 -248 -44 c-181 -32
-250 -41 -256 -33 -11 20 -423 1681 -417 1687 6 6 491 94 495 89 2 -1 50 -222
108 -491 58 -269 111 -509 118 -534 l12 -45 76 310 c42 171 104 429 139 575
34 146 66 269 70 273 4 5 38 15 75 22 130 25 326 56 329 53 2 -2 28 -102 60
-223 31 -121 89 -344 130 -495 40 -151 76 -291 81 -310 7 -34 8 -33 26 40 15
65 140 644 209 974 13 59 28 110 33 112 17 6 378 71 404 73 12 0 22 -5 22 -11z
m-2907 -630 c25 -68 109 -296 187 -508 77 -212 149 -407 160 -435 96 -253 221
-598 217 -601 -1 -1 -112 -22 -247 -46 -177 -32 -248 -42 -256 -34 -7 6 -36
80 -65 164 -30 83 -58 152 -64 152 -16 0 -567 -99 -570 -102 -2 -2 -26 -84
-55 -183 -28 -99 -53 -181 -54 -182 -1 -1 -100 -19 -221 -41 -158 -28 -221
-35 -223 -27 -3 11 46 160 384 1185 62 190 139 422 170 517 l56 172 66 11 c37
6 150 26 252 45 102 18 192 34 201 34 12 1 29 -33 62 -121z m-1373 -291 l0
-183 -102 -18 c-304 -53 -614 -106 -620 -106 -5 0 -8 -74 -8 -165 0 -150 2
-165 18 -165 15 0 492 84 535 94 16 4 17 -9 17 -174 l0 -178 -112 -20 c-62
-12 -180 -33 -263 -47 -82 -14 -160 -27 -172 -30 -23 -5 -23 -7 -23 -184 0
-98 2 -180 5 -183 3 -2 163 24 357 59 194 34 363 63 376 63 l22 0 -2 -177 -3
-178 -65 -12 c-36 -6 -184 -33 -330 -58 -146 -26 -393 -69 -550 -97 -157 -27
-289 -50 -295 -51 -7 -1 -10 300 -10 888 l0 890 45 7 c151 23 1128 196 1145
202 34 14 35 8 35 -177z m-1435 -89 c-2 -7 -51 -159 -109 -338 -58 -179 -123
-383 -146 -455 -23 -71 -86 -267 -140 -435 -54 -168 -123 -379 -152 -470 l-53
-165 -60 -12 c-174 -35 -451 -81 -456 -75 -6 7 -34 82 -274 747 -145 401 -263
726 -304 835 -26 67 -27 76 -12 82 21 9 492 91 496 86 1 -1 85 -253 185 -558
101 -305 186 -559 190 -563 5 -5 16 17 25 50 10 32 41 139 70 238 153 523 239
818 261 890 l24 81 202 36 c229 41 259 44 253 26z m-1937 -1215 l-3 -887 -240
-43 c-132 -23 -243 -43 -247 -43 -5 0 -8 400 -8 889 l0 888 108 18 c59 10 163
29 232 41 69 12 133 23 143 23 16 1 17 -46 15 -886z m-935 677 l47 -12 0 -185
0 -184 -52 8 c-29 4 -118 8 -198 7 -326 -2 -535 -95 -625 -277 -54 -110 -69
-207 -62 -412 10 -289 54 -390 189 -430 86 -25 192 -14 321 35 l57 21 0 135
c0 155 12 144 -125 119 -44 -8 -92 -17 -107 -20 l-28 -4 0 164 c0 163 0 165
23 170 52 11 664 115 680 115 16 0 17 -29 17 -435 l0 -435 -77 -39 c-270 -135
-638 -222 -878 -207 -372 22 -547 211 -587 634 -15 157 0 364 37 501 27 99 97
249 148 316 180 236 461 375 857 424 95 12 300 7 363 -9z"/>
<path d="M8787 15679 c-128 -19 -227 -140 -227 -276 0 -92 64 -195 150 -238
57 -29 229 -55 515 -80 195 -17 238 -23 173 -24 l-38 -1 0 -50 c0 -47 -5 -56
-65 -132 -107 -135 -171 -289 -190 -455 -4 -35 -4 -63 -1 -63 3 0 29 14 58 31
l53 32 48 -27 c26 -14 51 -26 55 -26 4 0 8 34 9 77 1 42 8 108 15 147 11 62
13 -32 16 -716 l2 -788 240 0 240 0 1 788 c1 695 3 781 15 732 8 -30 15 -97
17 -147 2 -80 4 -93 19 -93 9 0 20 5 23 10 3 6 20 17 37 26 29 15 32 14 91
-17 l60 -32 -7 64 c-11 96 -35 186 -72 267 -33 74 -125 211 -163 246 -16 15
-21 31 -21 73 l0 53 -37 1 c-66 1 -23 7 167 24 297 26 456 52 513 83 197 107
195 383 -4 485 -44 23 -69 28 -121 28 -36 0 -81 -6 -99 -14 -57 -23 -177 -126
-374 -319 -137 -133 -194 -182 -209 -181 -79 9 -118 8 -143 -2 -28 -12 -30
-10 -203 159 -340 334 -404 375 -543 355z m315 -290 c66 -33 154 -90 298 -193
47 -33 87 -61 88 -62 11 -7 -12 -44 -27 -44 -15 0 -229 46 -396 85 -142 34
-235 100 -235 169 0 88 141 111 272 45z m1224 17 c71 -47 17 -153 -102 -200
-39 -16 -461 -116 -487 -116 -8 0 -17 10 -21 23 -7 27 4 37 179 155 161 109
213 139 262 152 51 12 139 5 169 -14z"/>
<path d="M13836 10912 c-24 -81 -89 -299 -141 -469 -7 -24 -10 -43 -7 -43 14
0 357 62 362 65 7 4 -172 545 -180 545 -3 0 -18 -44 -34 -98z"/>
<path d="M9796 10263 c-4 -16 -43 -148 -86 -294 -44 -147 -80 -271 -80 -276 0
-7 268 33 347 52 21 5 19 13 -69 275 -49 148 -93 270 -98 270 -4 0 -11 -12
-14 -27z"/>
<path d="M12055 15706 c-9 -13 -13 -31 -9 -42 4 -10 54 -67 111 -125 l104
-105 -110 -111 c-116 -117 -127 -137 -91 -173 36 -36 57 -25 170 85 58 58 110
105 115 105 5 0 57 -47 115 -105 81 -79 113 -105 133 -105 28 0 57 32 57 64 0
11 -46 66 -110 130 l-110 112 105 104 c60 60 103 111 100 118 -3 7 0 10 5 7 6
-3 10 1 10 9 0 9 -8 16 -17 16 -15 0 -16 2 -3 10 13 9 13 11 0 20 -39 26 -65
12 -172 -95 -59 -58 -110 -105 -113 -105 -4 0 -38 32 -77 70 -41 42 -74 68
-81 64 -7 -4 -9 -3 -4 1 9 11 -21 45 -36 41 -7 -2 -8 -1 -4 2 16 8 -16 32 -44
32 -19 0 -34 -8 -44 -24z m41 2 c4 -7 3 -10 -1 -5 -5 4 -18 -1 -29 -10 -21
-18 -21 -18 -2 5 22 26 23 26 32 10z m459 -17 c-3 -6 -11 -11 -17 -11 -6 0 -6
6 2 15 14 17 26 13 15 -4z"/>
<path d="M6418 15408 c-27 -6 -48 -14 -48 -19 0 -5 -7 -5 -17 -2 -12 5 -14 3
-8 -7 5 -9 4 -11 -4 -6 -13 8 -72 -32 -109 -73 -20 -23 -50 -78 -58 -106 -24
-87 -25 -213 -1 -242 5 -7 7 -13 3 -13 -15 0 60 -104 97 -134 88 -72 262 -95
358 -48 25 12 50 22 56 22 5 0 33 24 60 53 40 42 55 68 73 126 36 117 25 197
-45 322 -18 32 -100 101 -109 92 -3 -4 -6 -2 -6 3 0 9 -17 14 -62 17 -9 1 -15
4 -12 8 4 6 -75 20 -105 18 -9 -1 -37 -6 -63 -11z m203 -137 c127 -93 144
-258 37 -362 -142 -138 -376 -46 -392 154 -4 56 29 144 67 176 16 13 36 31 43
39 24 23 65 31 137 27 56 -3 74 -9 108 -34z"/>
<path d="M13585 14912 c-3 -3 -13 -6 -23 -8 -38 -5 -62 -17 -55 -28 4 -6 -1
-5 -10 3 -15 12 -20 11 -35 -3 -10 -9 -24 -16 -30 -16 -7 0 -12 -7 -12 -15 0
-8 -6 -12 -14 -9 -7 3 -21 -7 -31 -23 -10 -15 -24 -32 -31 -38 -48 -38 -82
-181 -64 -265 33 -147 117 -237 260 -277 53 -14 71 -15 131 -5 127 22 216 87
265 195 24 52 29 75 29 142 0 67 -5 90 -29 142 -38 83 -128 171 -168 164 -5 0
-8 3 -8 8 0 10 -59 33 -69 27 -3 -2 -27 -1 -53 4 -27 4 -50 5 -53 2z m85 -21
c0 -5 -9 -7 -20 -4 -11 3 -20 7 -20 9 0 2 9 4 20 4 11 0 20 -4 20 -9z m4 -92
c81 -23 157 -95 171 -164 13 -62 11 -81 -16 -163 -19 -59 -104 -122 -182 -136
-82 -15 -194 50 -239 138 -60 117 15 280 147 319 62 19 70 20 119 6z"/>
<path d="M4637 14179 c-11 -12 -15 -28 -11 -42 3 -12 52 -69 110 -127 l104
-105 -110 -110 c-83 -83 -110 -117 -110 -136 0 -30 28 -59 56 -59 11 0 67 48
131 112 l113 112 113 -112 c63 -62 122 -112 131 -112 37 0 56 20 56 58 0 33
-10 46 -107 144 l-107 107 79 83 c43 46 91 94 107 107 47 40 34 101 -22 101
-30 0 -123 -77 -113 -93 3 -6 1 -7 -5 -3 -6 3 -15 1 -19 -6 -5 -7 -31 -34 -59
-60 l-50 -48 -84 85 c-77 77 -113 105 -94 73 5 -9 2 -8 -9 1 -10 8 -15 16 -12
19 3 3 0 11 -6 19 -16 19 -61 15 -82 -8z m546 4 c-7 -2 -19 -2 -25 0 -7 3 -2
5 12 5 14 0 19 -2 13 -5z m-408 -72 c3 -5 2 -12 -3 -15 -5 -3 -9 1 -9 9 0 17
3 19 12 6z"/>
<path d="M14432 13423 c-6 -2 -10 -9 -7 -14 4 -5 -2 -6 -11 -2 -12 4 -15 2
-12 -8 3 -8 14 -13 24 -12 15 1 14 -2 -6 -17 l-25 -19 113 -113 112 -113 -106
-105 c-117 -116 -125 -128 -118 -157 5 -19 42 -43 66 -43 6 0 62 50 125 112
l113 112 104 -104 c105 -105 132 -124 164 -113 24 9 32 23 32 58 0 25 -18 47
-109 136 l-109 106 89 89 c116 115 133 138 125 170 -4 14 -11 22 -15 19 -5 -3
-11 0 -13 7 -9 25 -46 18 -76 -15 -80 -88 -193 -191 -200 -182 -4 6 -55 56
-113 113 -101 97 -117 107 -147 95z m57 -27 c9 -11 9 -16 -1 -22 -7 -4 -10 -4
-6 1 4 4 3 14 -3 22 -6 7 -9 13 -6 13 2 0 10 -6 16 -14z m426 -5 c3 -5 2 -12
-3 -15 -5 -3 -9 1 -9 9 0 17 3 19 12 6z"/>
<path d="M3808 12624 c-10 -3 -18 -10 -18 -15 0 -6 -4 -7 -10 -4 -11 7 -110
-45 -110 -57 0 -5 -6 -8 -12 -9 -21 -1 -69 -66 -94 -127 -66 -160 12 -359 173
-440 132 -67 297 -38 401 72 69 72 95 146 90 251 -8 191 -140 325 -328 331
-41 2 -83 1 -92 -2z m168 -123 c58 -27 121 -94 135 -144 48 -178 -103 -337
-278 -291 -102 26 -157 89 -170 194 -7 54 -6 72 10 110 52 123 190 182 303
131z"/>
<path d="M15020 8175 c0 -8 -6 -14 -12 -12 -9 1 -13 -10 -12 -36 1 -33 12 -48
100 -138 55 -55 100 -103 102 -107 1 -4 -45 -54 -103 -112 -90 -89 -105 -109
-105 -137 0 -36 7 -42 48 -48 26 -3 43 10 138 106 l108 109 112 -110 c116
-115 143 -129 178 -94 36 35 21 64 -95 180 l-111 111 111 114 c76 78 111 121
111 137 0 13 -4 21 -9 17 -5 -3 -12 4 -16 15 -4 11 -11 18 -16 14 -5 -3 -7
-11 -3 -17 3 -7 -2 -3 -10 7 -15 19 -21 14 -130 -94 l-115 -113 -33 30 c-18
16 -71 66 -117 112 -63 64 -85 80 -92 70 -6 -10 -9 -11 -9 -1 0 6 -4 12 -10
12 -5 0 -10 -7 -10 -15z"/>
<path d="M14095 6550 c-81 -24 -114 -42 -157 -87 -38 -40 -90 -132 -82 -145 3
-4 2 -13 -2 -20 -4 -7 -7 -47 -6 -90 3 -231 200 -368 449 -314 90 19 174 99
212 200 38 102 24 237 -35 324 -29 42 -94 102 -111 102 -7 0 -13 5 -13 11 0 5
-4 7 -10 4 -5 -3 -10 -1 -10 5 0 6 -4 9 -8 6 -5 -3 -30 1 -57 9 -61 19 -95 18
-170 -5z m-108 -95 c0 -8 -4 -12 -9 -9 -5 3 -6 10 -3 15 9 13 12 11 12 -6z
m278 -14 c95 -35 155 -119 155 -215 -1 -134 -97 -230 -230 -230 -140 0 -240
107 -227 246 6 67 9 76 32 113 57 88 169 123 270 86z"/>
<path d="M4407 6506 c-28 -10 -45 -45 -32 -66 3 -5 11 -7 17 -4 7 5 8 2 3 -6
-5 -8 27 -47 96 -116 l103 -104 -112 -113 c-66 -67 -112 -122 -112 -134 0 -31
24 -55 54 -55 23 0 51 22 139 111 l111 111 118 -116 c100 -100 120 -115 140
-109 30 9 35 15 43 48 7 25 -3 38 -105 142 l-113 114 107 111 c69 72 106 117
102 126 -3 9 -1 12 4 9 15 -9 12 12 -5 28 -8 8 -12 17 -10 19 3 3 -2 5 -10 5
-10 0 -14 -6 -10 -16 3 -8 3 -12 -1 -8 -4 4 -14 1 -23 -5 -13 -10 -14 -10 -3
2 6 8 12 21 11 30 0 10 -2 11 -6 3 -2 -7 -10 -13 -17 -13 -6 0 -58 -47 -116
-105 l-105 -105 -111 111 c-67 67 -114 107 -118 100 -4 -6 -13 -11 -19 -11 -7
0 -6 4 3 10 22 14 8 18 -23 6z"/>
<path d="M6163 5303 c-13 -2 -23 -8 -23 -13 0 -5 -7 -6 -17 -3 -12 5 -14 3 -8
-7 5 -9 4 -11 -4 -6 -6 4 -19 -1 -29 -11 -9 -11 -12 -12 -7 -4 8 12 7 13 -5 6
-40 -23 -69 -49 -64 -57 3 -5 0 -7 -7 -6 -18 4 -67 -70 -86 -132 -64 -209 57
-411 271 -451 165 -30 355 86 384 236 13 67 12 159 -2 208 -19 65 -77 153
-100 151 -9 -1 -14 2 -11 6 7 11 -22 33 -33 26 -5 -3 -20 6 -32 19 -15 16 -30
23 -42 19 -10 -3 -18 -1 -18 4 0 5 -29 9 -65 8 -36 0 -65 2 -65 7 0 4 -3 6 -7
6 -5 -1 -18 -4 -30 -6z m174 -126 c26 -14 108 -87 97 -87 -3 0 5 -19 17 -42
67 -132 -55 -320 -209 -320 -125 0 -232 106 -232 230 0 29 7 68 14 87 8 19 13
35 12 35 -14 0 87 87 119 102 47 22 134 20 182 -5z"/>
</g>
</svg>
